<svg xmlns="http://www.w3.org/2000/svg" xmlns:xlink="http://www.w3.org/1999/xlink" viewBox="0 0 189.85 176.41"><defs><style>.cls-1{fill:none;stroke-linecap:round;stroke-linejoin:round;stroke-width:3.36px;stroke:url(#linear-gradient);}.cls-2{fill:url(#linear-gradient-2);}</style><linearGradient id="linear-gradient" x1="-242.27" y1="1146.47" x2="-52.45" y2="1146.47" gradientTransform="translate(1152.49 -385.05) rotate(58.87)" gradientUnits="userSpaceOnUse"><stop offset="0" stop-color="#ff40ff"/><stop offset="0.84" stop-color="#28bcff"/><stop offset="1" stop-color="#00d3ff"/></linearGradient><linearGradient id="linear-gradient-2" x1="1752.52" y1="1704.42" x2="1732.79" y2="1637.83" gradientTransform="translate(1814.83 1748.52) rotate(180)" gradientUnits="userSpaceOnUse"><stop offset="0.41" stop-color="#7f5eff"/><stop offset="1" stop-color="#b973ff"/></linearGradient></defs><g id="Capa_2" data-name="Capa 2"><g id="Capa_1-2" data-name="Capa 1"><path class="cls-1" d="M174.73,33.29a93.23,93.23,0,1,1-128-31.61"/><path class="cls-2" d="M49.58,56.22V82.47a1.73,1.73,0,0,0,1.73,1.72h0A21.51,21.51,0,0,1,72.82,105.7h0a1.72,1.72,0,0,0,1.72,1.72h26.25a1.73,1.73,0,0,0,1.73-1.72h0A51.21,51.21,0,0,0,51.31,54.49h0A1.73,1.73,0,0,0,49.58,56.22Z"/></g></g></svg>