<svg xmlns="http://www.w3.org/2000/svg" xmlns:xlink="http://www.w3.org/1999/xlink" viewBox="0 0 199.44 184.58"><defs><style>.cls-1{fill:none;stroke-linecap:round;stroke-linejoin:round;stroke-width:3.53px;stroke:url(#linear-gradient);}.cls-2{fill:url(#linear-gradient-2);}</style><linearGradient id="linear-gradient" x1="-461.44" y1="62.08" x2="-262.03" y2="62.08" gradientTransform="translate(439.48 223.66) rotate(31.96)" gradientUnits="userSpaceOnUse"><stop offset="0" stop-color="#ff40ff"/><stop offset="0.84" stop-color="#28bcff"/><stop offset="1" stop-color="#00d3ff"/></linearGradient><linearGradient id="linear-gradient-2" x1="136.5" y1="123.41" x2="116.77" y2="56.83" gradientUnits="userSpaceOnUse"><stop offset="0.41" stop-color="#7f5eff"/><stop offset="1" stop-color="#b973ff"/></linearGradient></defs><g id="Capa_2" data-name="Capa 2"><g id="Capa_1-2" data-name="Capa 1"><path class="cls-1" d="M151.56,1.77A97.94,97.94,0,1,1,16.62,33"/><path class="cls-2" d="M149.23,111.3V85.05a1.73,1.73,0,0,0-1.73-1.73h0A21.51,21.51,0,0,1,126,61.81h0a1.72,1.72,0,0,0-1.72-1.72H98a1.72,1.72,0,0,0-1.72,1.72h0A51.2,51.2,0,0,0,147.5,113h0A1.72,1.72,0,0,0,149.23,111.3Z"/></g></g></svg>