<svg xmlns="http://www.w3.org/2000/svg" xmlns:xlink="http://www.w3.org/1999/xlink" viewBox="0 0 198.49 166.98"><defs><style>.cls-1{fill:url(#linear-gradient);}.cls-2,.cls-3,.cls-4{fill:none;}.cls-2,.cls-3{stroke:#8b68ff;stroke-linecap:round;stroke-linejoin:round;stroke-width:2.38px;}.cls-3{stroke-dasharray:0 12.74;}.cls-4{stroke:#f9fbfc;stroke-miterlimit:10;stroke-width:0.58px;}.cls-5{fill:#ff4237;}</style><linearGradient id="linear-gradient" x1="190.07" y1="144.35" x2="194.04" y2="156.67" gradientUnits="userSpaceOnUse"><stop offset="0" stop-color="#ff63aa"/><stop offset="1" stop-color="#9f74ff"/></linearGradient></defs><g id="Capa_2" data-name="Capa 2"><g id="Capa_1-2" data-name="Capa 1"><path class="cls-1" d="M197.3,150.33A5.3,5.3,0,1,1,192,145,5.3,5.3,0,0,1,197.3,150.33Z"/><line class="cls-2" x1="108.09" y1="165.79" x2="108.09" y2="165.79"/><line class="cls-3" x1="120.84" y1="165.79" x2="190.92" y2="165.79"/><line class="cls-2" x1="197.3" y1="165.79" x2="197.3" y2="165.79"/><rect class="cls-4" x="0.29" y="0.29" width="4.39" height="4.39"/><rect class="cls-4" x="33.84" y="0.29" width="4.39" height="4.39"/><rect class="cls-4" x="67.39" y="0.29" width="4.39" height="4.39"/><rect class="cls-4" x="100.94" y="0.29" width="4.39" height="4.39"/><rect class="cls-4" x="134.49" y="0.29" width="4.39" height="4.39"/><rect class="cls-4" x="168.04" y="0.29" width="4.39" height="4.39"/><rect class="cls-4" x="0.29" y="24.74" width="4.39" height="4.39"/><rect class="cls-4" x="33.84" y="24.74" width="4.39" height="4.39"/><rect class="cls-4" x="67.39" y="24.74" width="4.39" height="4.39"/><rect class="cls-4" x="100.94" y="24.74" width="4.39" height="4.39"/><rect class="cls-4" x="134.49" y="24.74" width="4.39" height="4.39"/><rect class="cls-4" x="168.04" y="24.74" width="4.39" height="4.39"/><rect class="cls-4" x="0.29" y="49.2" width="4.39" height="4.39"/><rect class="cls-4" x="33.84" y="49.2" width="4.39" height="4.39"/><rect class="cls-4" x="67.39" y="49.2" width="4.39" height="4.39"/><rect class="cls-4" x="100.94" y="49.2" width="4.39" height="4.39"/><rect class="cls-4" x="134.49" y="49.2" width="4.39" height="4.39"/><rect class="cls-4" x="168.04" y="49.2" width="4.39" height="4.39"/><rect class="cls-4" x="0.29" y="73.66" width="4.39" height="4.39"/><rect class="cls-4" x="33.84" y="73.66" width="4.39" height="4.39"/><rect class="cls-4" x="67.39" y="73.66" width="4.39" height="4.39"/><rect class="cls-4" x="100.94" y="73.66" width="4.39" height="4.39"/><rect class="cls-4" x="134.49" y="73.66" width="4.39" height="4.39"/><rect class="cls-4" x="168.04" y="73.66" width="4.39" height="4.39"/><rect class="cls-4" x="0.29" y="98.12" width="4.39" height="4.39"/><rect class="cls-5" x="33.84" y="98.12" width="4.39" height="4.39"/><rect class="cls-5" x="67.39" y="98.12" width="4.39" height="4.39"/><rect class="cls-4" x="100.94" y="98.12" width="4.39" height="4.39"/><rect class="cls-4" x="134.49" y="98.12" width="4.39" height="4.39"/><rect class="cls-4" x="168.04" y="98.12" width="4.39" height="4.39"/><rect class="cls-4" x="0.29" y="122.57" width="4.39" height="4.39"/><rect class="cls-4" x="33.84" y="122.57" width="4.39" height="4.39"/><rect class="cls-4" x="67.39" y="122.57" width="4.39" height="4.39"/><rect class="cls-5" x="100.94" y="122.57" width="4.39" height="4.39"/><rect class="cls-4" x="134.49" y="122.57" width="4.39" height="4.39"/><rect class="cls-4" x="168.04" y="122.57" width="4.39" height="4.39"/><rect class="cls-4" x="0.29" y="147.03" width="4.39" height="4.39"/><rect class="cls-4" x="33.84" y="147.03" width="4.39" height="4.39"/><rect class="cls-4" x="67.39" y="147.03" width="4.39" height="4.39"/><rect class="cls-4" x="100.94" y="147.03" width="4.39" height="4.39"/><rect class="cls-5" x="134.49" y="147.03" width="4.39" height="4.39"/><rect class="cls-4" x="168.04" y="147.03" width="4.39" height="4.39"/></g></g></svg>