<svg xmlns="http://www.w3.org/2000/svg" xmlns:xlink="http://www.w3.org/1999/xlink" viewBox="0 0 281.38 155.22"><defs><style>.cls-1{fill:#eff4ff;}.cls-2{fill:#3bc9ff;}.cls-3,.cls-5{fill:none;}.cls-3{stroke-linecap:round;stroke-linejoin:round;stroke-width:2.26px;stroke:url(#linear-gradient);}.cls-4{fill:url(#linear-gradient-2);}.cls-5{stroke:#f9fbfc;stroke-miterlimit:10;stroke-width:0.58px;}.cls-6{fill:#ff4237;}</style><linearGradient id="linear-gradient" x1="189.82" y1="124.77" x2="281.38" y2="124.77" gradientUnits="userSpaceOnUse"><stop offset="0" stop-color="#ff40ff"/><stop offset="0.84" stop-color="#28bcff"/><stop offset="1" stop-color="#00d3ff"/></linearGradient><linearGradient id="linear-gradient-2" x1="266.49" y1="86.74" x2="274.06" y2="110.2" gradientUnits="userSpaceOnUse"><stop offset="0" stop-color="#ff4174"/><stop offset="1" stop-color="#ff63aa"/></linearGradient></defs><g id="Capa_2" data-name="Capa 2"><g id="Capa_1-2" data-name="Capa 1"><rect class="cls-1" y="145.63" width="9.59" height="9.59" rx="2.33"/><rect class="cls-1" x="24.97" y="145.63" width="9.59" height="9.59" rx="2.33"/><rect class="cls-2" x="49.95" y="145.63" width="9.59" height="9.59" rx="2.33"/><path class="cls-3" d="M273.44,131.58H197.76a6.81,6.81,0,0,1-6.81-6.81h0a6.81,6.81,0,0,1,6.81-6.81h75.68a6.81,6.81,0,0,1,6.81,6.81h0A6.81,6.81,0,0,1,273.44,131.58Z"/><circle class="cls-4" cx="270.16" cy="98.12" r="10.09"/><rect class="cls-5" x="75.41" y="0.29" width="4.39" height="4.39"/><rect class="cls-5" x="108.96" y="0.29" width="4.39" height="4.39"/><rect class="cls-5" x="142.51" y="0.29" width="4.39" height="4.39"/><rect class="cls-5" x="176.06" y="0.29" width="4.39" height="4.39"/><rect class="cls-5" x="209.61" y="0.29" width="4.39" height="4.39"/><rect class="cls-5" x="243.16" y="0.29" width="4.39" height="4.39"/><rect class="cls-5" x="75.41" y="24.74" width="4.39" height="4.39"/><rect class="cls-5" x="108.96" y="24.74" width="4.39" height="4.39"/><rect class="cls-5" x="142.51" y="24.74" width="4.39" height="4.39"/><rect class="cls-5" x="176.06" y="24.74" width="4.39" height="4.39"/><rect class="cls-5" x="209.61" y="24.74" width="4.39" height="4.39"/><rect class="cls-5" x="243.16" y="24.74" width="4.39" height="4.39"/><rect class="cls-5" x="75.41" y="49.2" width="4.39" height="4.39"/><rect class="cls-5" x="108.96" y="49.2" width="4.39" height="4.39"/><rect class="cls-5" x="142.51" y="49.2" width="4.39" height="4.39"/><rect class="cls-5" x="176.06" y="49.2" width="4.39" height="4.39"/><rect class="cls-5" x="209.61" y="49.2" width="4.39" height="4.39"/><rect class="cls-5" x="243.16" y="49.2" width="4.39" height="4.39"/><rect class="cls-5" x="75.41" y="73.66" width="4.39" height="4.39"/><rect class="cls-5" x="108.96" y="73.66" width="4.39" height="4.39"/><rect class="cls-5" x="142.51" y="73.66" width="4.39" height="4.39"/><rect class="cls-5" x="176.06" y="73.66" width="4.39" height="4.39"/><rect class="cls-5" x="209.61" y="73.66" width="4.39" height="4.39"/><rect class="cls-5" x="243.16" y="73.66" width="4.39" height="4.39"/><rect class="cls-5" x="75.41" y="98.12" width="4.39" height="4.39"/><rect class="cls-6" x="108.96" y="98.12" width="4.39" height="4.39"/><rect class="cls-6" x="142.51" y="98.12" width="4.39" height="4.39"/><rect class="cls-5" x="176.06" y="98.12" width="4.39" height="4.39"/><rect class="cls-5" x="209.61" y="98.12" width="4.39" height="4.39"/><rect class="cls-5" x="243.16" y="98.12" width="4.39" height="4.39"/><rect class="cls-5" x="75.41" y="122.57" width="4.39" height="4.39"/><rect class="cls-5" x="108.96" y="122.57" width="4.39" height="4.39"/><rect class="cls-5" x="142.51" y="122.57" width="4.39" height="4.39"/><rect class="cls-6" x="176.06" y="122.57" width="4.39" height="4.39"/><rect class="cls-5" x="209.61" y="122.57" width="4.39" height="4.39"/><rect class="cls-5" x="243.16" y="122.57" width="4.39" height="4.39"/><rect class="cls-5" x="75.41" y="147.03" width="4.39" height="4.39"/><rect class="cls-5" x="108.96" y="147.03" width="4.39" height="4.39"/><rect class="cls-5" x="142.51" y="147.03" width="4.39" height="4.39"/><rect class="cls-5" x="176.06" y="147.03" width="4.39" height="4.39"/><rect class="cls-6" x="209.61" y="147.03" width="4.39" height="4.39"/><rect class="cls-5" x="243.16" y="147.03" width="4.39" height="4.39"/></g></g></svg>