<svg xmlns="http://www.w3.org/2000/svg" xmlns:xlink="http://www.w3.org/1999/xlink" viewBox="0 0 55.8 67.79"><defs><style>.cls-1{fill:url(#linear-gradient);}.cls-2{fill:url(#linear-gradient-2);}</style><linearGradient id="linear-gradient" x1="6.74" y1="21.94" x2="14.69" y2="46.58" gradientUnits="userSpaceOnUse"><stop offset="0" stop-color="#ff63aa"/><stop offset="1" stop-color="#9f74ff"/></linearGradient><linearGradient id="linear-gradient-2" x1="-509.56" y1="266.45" x2="-460.69" y2="266.45" gradientTransform="translate(572.27 188.52) rotate(45)" gradientUnits="userSpaceOnUse"><stop offset="0" stop-color="#ff4174"/><stop offset="1" stop-color="#ff63aa"/></linearGradient></defs><g id="Capa_2" data-name="Capa 2"><g id="Capa_1-2" data-name="Capa 1"><path class="cls-1" d="M21.19,33.89A10.6,10.6,0,1,1,10.59,23.3,10.6,10.6,0,0,1,21.19,33.89Z"/><path class="cls-2" d="M39.7.47,22.57,17.6a1.58,1.58,0,0,0,0,2.25h0a19.86,19.86,0,0,1,0,28.08h0a1.59,1.59,0,0,0,0,2.26L39.7,67.32a1.59,1.59,0,0,0,2.25,0h0A47.27,47.27,0,0,0,42,.47h0A1.58,1.58,0,0,0,39.7.47Z"/></g></g></svg>